# xmcd
#
# Track frame offsets:
#	150
#	14410
#	25138
#	42417
#	55420
#	68410
#	81683
#	98410
#	112092
#	124862
#	137709
#	147717
#
# Disc length: 2163 seconds
# Revision: 0
# Processed by: cddbd v1.5.2PL0 Copyright (c) Steve Scherf et al.
# Submitted via: dBpowerAMP V12.0
#
DISCID=ae08710c
DTITLE=Johnny Campbell and The Bluegrass Drifters - Johnny Campbell and The Bluegrass Drifters
DYEAR=2013
DGENRE=Bluegrass
TTITLE0=Gospel Plow
TTITLE1=Hard Times, Sometimes
TTITLE2=Runnin' Late
TTITLE3=Angel From On High
TTITLE4=Old Book Of Mine
TTITLE5=Letter From My Darlin'
TTITLE6=Me And Jimmy
TTITLE7=Heading West
TTITLE8=Future On Ice
TTITLE9=Lonesome Feeling
TTITLE10=Lost Tune
TTITLE11=Tear Down The Walls
EXTD=
EXTT0=
EXTT1=
EXTT2=
EXTT3=
EXTT4=
EXTT5=
EXTT6=
EXTT7=
EXTT8=
EXTT9=
EXTT10=
EXTT11=
PLAYORDER=
